<?xml version="1.0" encoding="UTF-8"?>
<svg version="1.1" xmlns="http://www.w3.org/2000/svg" width="1600" height="243">
<path d="M0 0 C45.87 0 91.74 0 139 0 C139 7.59 139 15.18 139 23 C102.04 23 65.08 23 27 23 C27 26.3 27 29.6 27 33 C61.98 33 96.96 33 133 33 C133 39.93 133 46.86 133 54 C128.6122209 54.62682559 124.95600196 55.12544881 120.6394043 55.12939453 C119.63290833 55.13250641 118.62641235 55.13561829 117.5894165 55.13882446 C116.51190125 55.13684052 115.43438599 55.13485657 114.32421875 55.1328125 C113.181203 55.13413177 112.03818726 55.13545105 110.86053467 55.1368103 C107.13616222 55.13872629 103.41186481 55.13238825 99.6875 55.125 C98.42310089 55.12411377 97.15870178 55.12322754 95.85598755 55.12231445 C72.89315784 55.10342233 49.95112659 54.7139591 27 54 C27 57.3 27 60.6 27 64 C61.98 64 96.96 64 133 64 C133 71.26 133 78.52 133 86 C98.02 86 63.04 86 27 86 C27 89.3 27 92.6 27 96 C71.22 96 115.44 96 161 96 C161 104.25 161 112.5 161 121 C151.1 121.495 151.1 121.495 141 122 C144.94152649 124.83757749 144.94152649 124.83757749 148.8984375 127.65356445 C150.32047174 128.69822354 151.66323763 129.84823599 153 131 C153 131.99 153 132.98 153 134 C143.36714077 143.41839854 130.7003321 149.59145049 119 156 C133.70349419 163.87603968 148.83746107 169.00053622 165 173 C165 177.86649906 164.01475444 178.57075653 160.875 182.125 C156.61228128 187.12847553 153.17679095 192.25686028 150 198 C116.30651288 191.17600261 84.389694 174.12317689 64.95727539 145.23535156 C52 125.39459782 52 125.39459782 52 121 C42.1 121 32.2 121 22 121 C22 135.85 22 150.7 22 166 C26.08375 165.0925 30.1675 164.185 34.375 163.25 C36.37409424 162.80648193 36.37409424 162.80648193 38.41357422 162.35400391 C43.84303844 161.14928046 49.27168645 159.94170606 54.6953125 158.7109375 C55.51854004 158.52499023 56.34176758 158.33904297 57.18994141 158.14746094 C58.69541664 157.80697087 60.20033214 157.46399341 61.70458984 157.11816406 C64.54445792 156.4779029 67.07716158 156 70 156 C69.50610812 164.78607656 68.63177319 173.35001785 67 182 C59.20494089 183.90899407 51.38703771 185.52641932 43.5 187 C27.76844277 189.95253402 11.95865257 193.20743047 -3 199 C-3.53109375 197.92621094 -4.0621875 196.85242188 -4.609375 195.74609375 C-5.32280745 194.30984158 -6.03635529 192.87364672 -6.75 191.4375 C-7.27207031 190.38079102 -7.27207031 190.38079102 -7.8046875 189.30273438 C-9.52521583 185.84574689 -11.2915069 182.5045559 -13.328125 179.22265625 C-15 176 -15 176 -14.96484375 173.7890625 C-13.39610246 170.88022238 -11.06183663 168.85244505 -8.69140625 166.5859375 C-3.28176019 158.3153008 -4.57285166 146.3709418 -4.375 136.875 C-4.189375 129.016875 -4.189375 129.016875 -4 121 C-14.56 121 -25.12 121 -36 121 C-36 112.75 -36 104.5 -36 96 C-24.12 96 -12.24 96 0 96 C0 64.32 0 32.64 0 0 Z " fill="#EAE9E8" transform="translate(362,18)"/>
<path d="M0 0 C1.12664063 -0.00515625 2.25328125 -0.0103125 3.4140625 -0.015625 C6.375 0.25 6.375 0.25 9.375 2.25 C7.704375 2.4665625 7.704375 2.4665625 6 2.6875 C2.55357953 3.03372035 2.55357953 3.03372035 0.375 4.25 C0.375 5.24 0.375 6.23 0.375 7.25 C-0.615 7.745 -0.615 7.745 -1.625 8.25 C-1.295 9.9 -0.965 11.55 -0.625 13.25 C-1.615 13.745 -1.615 13.745 -2.625 14.25 C0.79846555 17.39958831 3.81762737 17.81179109 8.375 18.25 C7.715 17.59 7.055 16.93 6.375 16.25 C7.375 14.25 7.375 14.25 10.375 13.25 C11.37978037 11.3977633 11.37978037 11.3977633 11.375 9.25 C10.02055699 7.47809091 10.02055699 7.47809091 8.375 6.25 C9.035 4.93 9.695 3.61 10.375 2.25 C13.51691424 3.78604696 16.46096738 5.30731159 19.375 7.25 C19.375 7.91 19.375 8.57 19.375 9.25 C20.035 9.25 20.695 9.25 21.375 9.25 C32.10835097 23.5711006 32.23554168 39.17031217 30.375 56.25 C31.16765259 56.77787109 31.16765259 56.77787109 31.97631836 57.31640625 C55.98884327 73.36491237 55.98884327 73.36491237 62.375 82.25 C64.28088119 82.09635574 64.28088119 82.09635574 66.375 81.25 C68.03113265 79.18012766 68.03113265 79.18012766 69.5 76.625 C73.30415744 70.92685779 77.6717352 67.89073712 83.375 64.25 C90.99271768 58.91429037 98.2292533 53.19802211 105.375 47.25 C112.52320984 41.2999276 119.78953526 35.63465292 127.375 30.25 C128.035 30.58 128.695 30.91 129.375 31.25 C129.36013675 42.00301084 129.31859567 52.75555496 129.24290943 63.50831985 C129.20860573 68.50121325 129.18352421 73.49379958 129.17944336 78.48681641 C129.17516764 83.30464218 129.14676558 88.12177484 129.10156822 92.93938446 C129.0885699 94.77815465 129.08429379 96.61700768 129.08884621 98.45581818 C129.09373579 101.03022775 129.0677354 103.60259871 129.03442383 106.17675781 C129.04304947 106.93848801 129.05167511 107.7002182 129.06056213 108.48503113 C128.97671874 112.34538993 128.68391097 113.92979181 125.95878601 116.75457764 C123.375 118.25 123.375 118.25 121.375 118.25 C123.96549571 120.93596763 126.58692529 123.26588516 129.60546875 125.45703125 C130.40919922 126.04419922 131.21292969 126.63136719 132.04101562 127.23632812 C133.28915039 128.1402832 133.28915039 128.1402832 134.5625 129.0625 C151.51635174 141.39135174 151.51635174 141.39135174 154.375 144.25 C154.46994733 146.62300869 154.50059319 148.96678703 154.48852539 151.34008789 C154.48867142 152.08150528 154.48881744 152.82292267 154.4889679 153.58680725 C154.48826865 156.04878621 154.48047574 158.51069043 154.47265625 160.97265625 C154.47079211 162.67516539 154.46936819 164.37767507 154.46836853 166.08018494 C154.46454302 170.56993073 154.45471247 175.05964438 154.44366455 179.54937744 C154.43345113 184.12731491 154.42887106 188.70525756 154.42382812 193.28320312 C154.41309022 202.27214957 154.39601341 211.26107212 154.375 220.25 C150.49720732 218.76297298 147.39087643 217.03394907 143.99609375 214.625 C142.99255859 213.91859375 141.98902344 213.2121875 140.95507812 212.484375 C139.91802734 211.74703125 138.88097656 211.0096875 137.8125 210.25 C135.75038503 208.78928203 133.68664804 207.33085048 131.62109375 205.875 C130.71029053 205.22789062 129.7994873 204.58078125 128.86108398 203.9140625 C126.72695099 202.48557871 124.76215279 201.19435388 122.375 200.25 C121.715 200.58 121.055 200.91 120.375 201.25 C118.25 200.3125 118.25 200.3125 116.375 199.25 C114.97701172 200.37535156 114.97701172 200.37535156 113.55078125 201.5234375 C107.26489203 206.57339789 100.96631749 211.600058 94.5625 216.5 C93.50122437 217.31500299 92.4400248 218.13010501 91.37890625 218.9453125 C89.4523806 220.4234011 87.52294309 221.89770665 85.58984375 223.3671875 C80.86496964 227.03021207 76.80867366 230.76901209 72.96875 235.3515625 C70.58389303 238.19234801 68.12196096 240.75276276 65.375 243.25 C64.385 243.25 63.395 243.25 62.375 243.25 C62.37357498 242.29422058 62.37214996 241.33844116 62.37068176 240.35369873 C62.35401567 231.3484315 62.31125434 222.34361639 62.24290943 213.33858871 C62.20861135 208.70889552 62.18352511 204.07953329 62.17944336 199.44970703 C62.17516639 194.98198588 62.14675435 190.51501167 62.10156822 186.0475235 C62.08857384 184.34272868 62.08429242 182.63784455 62.08884621 180.93300629 C62.09373878 178.54533644 62.06772411 176.15986107 62.03442383 173.77246094 C62.04736229 172.71402229 62.04736229 172.71402229 62.06056213 171.63420105 C61.97292179 167.88844219 61.66304231 166.52804363 58.91996765 163.88018799 C58.08012833 163.34222595 57.240289 162.80426392 56.375 162.25 C55.48675954 161.21581635 54.6291681 160.15408607 53.8125 159.0625 C47.56545237 151.61043811 38.82793037 146.51653374 30.75 141.25 C25.40749506 137.76639771 20.76813358 134.02088377 16.12890625 129.625 C10.78280379 125.01446058 4.79896773 121.22534305 -1.08789062 117.34399414 C-2.625 116.25 -2.625 116.25 -4.625 114.25 C-4.80010386 111.59708243 -4.85655483 109.05013826 -4.8203125 106.3984375 C-4.8174826 105.62440582 -4.81465271 104.85037415 -4.81173706 104.05288696 C-4.80052754 101.57676843 -4.77542203 99.1010095 -4.75 96.625 C-4.73997118 94.94792188 -4.73084516 93.27083811 -4.72265625 91.59375 C-4.70058574 87.47902777 -4.66605102 83.36457489 -4.625 79.25 C-5.57262207 79.10304688 -6.52024414 78.95609375 -7.49658203 78.8046875 C-15.80525425 77.33150947 -21.89112925 70.90470965 -26.625 64.25 C-32.79674282 52.11994638 -34.05212373 36.68505034 -30.0625 23.625 C-25.76540853 12.98744489 -19.5597075 6.08598442 -9.265625 1.109375 C-6.07088897 0.06966801 -3.35540022 -0.01542713 0 0 Z M-3.625 10.25 C-3.955 10.91 -4.285 11.57 -4.625 12.25 C-3.635 11.92 -2.645 11.59 -1.625 11.25 C-2.285 10.92 -2.945 10.59 -3.625 10.25 Z " fill="#E0E3DF" transform="translate(31.625,-0.25)"/>
<path d="M0 0 C2.03637695 1.55053711 2.03637695 1.55053711 3.98828125 3.52734375 C5.04692383 4.59178711 5.04692383 4.59178711 6.12695312 5.67773438 C6.84818359 6.42345703 7.56941406 7.16917969 8.3125 7.9375 C9.42334961 9.0502832 9.42334961 9.0502832 10.55664062 10.18554688 C16 15.71921083 16 15.71921083 16 18 C-32.94590373 28.11285862 -32.94590373 28.11285862 -58 29 C-57.505 31.475 -57.505 31.475 -57 34 C-32.98141972 35.05625569 -9.04381772 35.07857457 15 35 C15 52.16 15 69.32 15 87 C7.74 87.33 0.48 87.66 -7 88 C-6.175 89.918125 -5.35 91.83625 -4.5 93.8125 C-2 99.625 -2 99.625 -2 103 C4.6 103 11.2 103 18 103 C18 108.61 18 114.22 18 120 C11.07 120 4.14 120 -3 120 C-2.67 121.98 -2.34 123.96 -2 126 C3.61 126 9.22 126 15 126 C15 131.28 15 136.56 15 142 C9.06 142 3.12 142 -3 142 C-3 144.31 -3 146.62 -3 149 C2.94 149 8.88 149 15 149 C15 154.28 15 159.56 15 165 C9.06 165 3.12 165 -3 165 C-3 167.31 -3 169.62 -3 172 C4.26 172 11.52 172 19 172 C19 173.98 19 175.96 19 178 C26.75580398 173.22287436 34.06419873 167.64222714 39.98046875 160.6640625 C42 159 42 159 44.19921875 158.96484375 C48.27286203 160.47044413 52.00766349 162.47988622 55.8125 164.5625 C56.99489258 165.19961914 56.99489258 165.19961914 58.20117188 165.84960938 C60.1373378 166.89396554 62.07005367 167.9442077 64 169 C62.73675528 172.61243665 61.38591486 174.99706445 58.69140625 177.70703125 C58.03188965 178.37250977 57.37237305 179.03798828 56.69287109 179.72363281 C55.98984863 180.41295898 55.28682617 181.10228516 54.5625 181.8125 C53.84400879 182.52374023 53.12551758 183.23498047 52.38525391 183.96777344 C46.94215556 189.27105577 41.38249766 193.85410409 35 198 C34.33871094 198.44859375 33.67742187 198.8971875 32.99609375 199.359375 C31.67429964 200.25488284 30.33947046 201.1311543 29 202 C24.28287765 199.99713831 21.02728462 196.46173367 17.33984375 192.99609375 C14.06577822 190.20302616 11.59154638 189.87509165 7.43676758 189.88647461 C6.51603958 189.88655014 5.59531158 189.88662567 4.64668274 189.88670349 C3.65597275 189.89186478 2.66526276 189.89702606 1.64453125 189.90234375 C0.62775803 189.9037587 -0.3890152 189.90517365 -1.43659973 189.90663147 C-4.68692964 189.91223293 -7.93719088 189.92478568 -11.1875 189.9375 C-13.38997296 189.94251481 -15.59244701 189.94707775 -17.79492188 189.95117188 C-23.19663804 189.96220283 -28.59831412 189.97894238 -34 190 C-34.495 193.96 -34.495 193.96 -35 198 C-41.6 198 -48.2 198 -55 198 C-55.33 180.51 -55.66 163.02 -56 145 C-56.99 145.99 -57.98 146.98 -59 148 C-59.33 147.34 -59.66 146.68 -60 146 C-60.12528076 146.78947021 -60.25056152 147.57894043 -60.37963867 148.39233398 C-66.30938273 185.3342361 -66.30938273 185.3342361 -73 198 C-78.10884605 196.56952311 -82.01744261 194.28610306 -86.375 191.375 C-87.33599609 190.74464844 -87.33599609 190.74464844 -88.31640625 190.1015625 C-89.88155698 189.07370232 -91.44134314 188.03768114 -93 187 C-92.14975152 182.96131972 -91.28698612 178.97143532 -90.1171875 175.01171875 C-84.72071979 156.59149236 -82.85841742 137.47233975 -81.75 118.375 C-81.70889099 117.69111206 -81.66778198 117.00722412 -81.62542725 116.3026123 C-81.04445891 106.31596176 -80.95990049 96.35588379 -80.9956665 86.35411072 C-81.020703 77.42026913 -80.92297004 68.49098644 -80.78125 59.55859375 C-80.76466717 58.50886761 -80.76466717 58.50886761 -80.74774933 57.43793488 C-80.67961633 53.16372297 -80.60847079 48.88956521 -80.53643799 44.61541748 C-80.47461237 40.92006835 -80.41515902 37.224681 -80.35546875 33.52929688 C-80.23921866 26.3528266 -80.12047262 19.17640078 -80 12 C-79.30519028 11.91861282 -78.61038055 11.83722565 -77.89451599 11.75337219 C-74.67812796 11.37541396 -71.46211341 10.99436075 -68.24609375 10.61328125 C-66.60755432 10.4214325 -66.60755432 10.4214325 -64.93591309 10.22570801 C-47.52779132 8.15630104 -30.46617931 5.13202104 -13.46313477 0.8425293 C-12.42987061 0.58898682 -11.39660645 0.33544434 -10.33203125 0.07421875 C-9.42171143 -0.15692627 -8.5113916 -0.38807129 -7.57348633 -0.6262207 C-4.66019669 -1.04935384 -2.79849877 -0.91228345 0 0 Z " fill="#EAEBE7" transform="translate(1278,15)"/>
<path d="M0 0 C8.91 0 17.82 0 27 0 C27 10.23 27 20.46 27 31 C43.5 31 60 31 77 31 C77 39.25 77 47.5 77 56 C60.5 56 44 56 27 56 C27 64.25 27 72.5 27 81 C29.29195312 80.84660156 31.58390625 80.69320312 33.9453125 80.53515625 C36.21563375 80.41024995 38.48625754 80.29865439 40.75732422 80.18823242 C42.31150526 80.10569961 43.86504466 80.00977477 45.41748047 79.89916992 C57.22838737 79.07080315 64.87304712 80.62012126 75 87 C74.48462161 91.14517351 73.86036959 94.91820818 72.36328125 98.8203125 C71.87323608 100.10784424 71.87323608 100.10784424 71.37329102 101.42138672 C70.84819946 102.75967529 70.84819946 102.75967529 70.3125 104.125 C69.95019287 105.05715332 69.58788574 105.98930664 69.21459961 106.94970703 C62.31846748 124.51983912 54.24583175 139.98099593 41.6015625 154.07421875 C39.60074989 156.32438188 37.74900342 158.55496461 36 161 C37.02673828 161.37898438 37.02673828 161.37898438 38.07421875 161.765625 C40.81429355 162.92165122 43.36694798 164.26395646 45.9597168 165.71582031 C58.03559717 172.45629063 70.86688465 176.77153483 84 181 C82.66876259 184.69861033 81.01556439 187.59085275 78.6875 190.75 C75.40601578 195.32210982 72.61073442 200.01915184 70 205 C63.61740661 204.48031636 58.39682237 202.88567254 52.5 200.4375 C51.62923828 200.08107422 50.75847656 199.72464844 49.86132812 199.35742188 C37.98199321 194.41999195 26.82576859 189.03468098 16.453125 181.37109375 C14.18965169 179.83188319 14.18965169 179.83188319 12.0859375 180.05078125 C9.06670921 181.42469974 6.22167782 183.05569722 3.375 184.75 C-5.932402 190.26235654 -15.48083747 194.76573996 -25.5625 198.6875 C-26.53896484 199.07744141 -27.51542969 199.46738281 -28.52148438 199.86914062 C-34.30740018 202.13319464 -39.89810615 203.82244154 -46 205 C-46.53109375 203.91460937 -47.0621875 202.82921875 -47.609375 201.7109375 C-48.3226991 200.26551761 -49.03625301 198.82021111 -49.75 197.375 C-50.09804687 196.66214844 -50.44609375 195.94929687 -50.8046875 195.21484375 C-52.45642443 191.88078216 -54.12708044 188.71346863 -56.265625 185.6640625 C-58 183 -58 183 -58 180 C-56.76507812 179.6596875 -55.53015625 179.319375 -54.2578125 178.96875 C-38.63054852 174.5437701 -23.61414429 169.03048767 -10 160 C-10.58940559 156.05835014 -12.53602048 153.81286343 -15 150.75 C-24.47160474 138.53571149 -32.80044385 123.55026493 -36.94140625 108.6015625 C-37.29074219 107.74304688 -37.64007812 106.88453125 -38 106 C-39.32 105.67 -40.64 105.34 -42 105 C-42 97.08 -42 89.16 -42 81 C-28.14 80.67 -14.28 80.34 0 80 C0 72.41 0 64.82 0 57 C-15.18 56.67 -30.36 56.34 -46 56 C-46 47.75 -46 39.5 -46 31 C-23.23 30.505 -23.23 30.505 0 30 C0 20.1 0 10.2 0 0 Z " fill="#E9E8E7" transform="translate(1093,11)"/>
<path d="M0 0 C6.17739955 -0.17159443 11.91629688 0.46268656 18 1.5 C18.87011719 1.64308594 19.74023438 1.78617188 20.63671875 1.93359375 C22.75875695 2.28338027 24.87952028 2.6408865 27 3 C25 12 23 21 21 30 C21.89630379 29.98334541 21.89630379 29.98334541 22.81071472 29.96635437 C29.08972055 29.8548231 35.36844028 29.77994835 41.64819336 29.7253418 C43.98457285 29.70036154 46.32087552 29.66636535 48.65698242 29.62280273 C73.57461064 29.17014225 73.57461064 29.17014225 84 35 C83.48706942 42.96000624 81.89456935 50.46693645 79.9375 58.1875 C79.63166992 59.40042725 79.32583984 60.61335449 79.01074219 61.86303711 C76.89446922 70.03823589 74.49885584 78.07791172 71.75 86.0625 C71.4212085 87.02502686 71.09241699 87.98755371 70.75366211 88.97924805 C68.1833459 96.18124913 68.1833459 96.18124913 65 99 C61.84803198 98.08232715 58.70482809 97.13761064 55.5625 96.1875 C54.21575195 95.79594727 54.21575195 95.79594727 52.84179688 95.39648438 C51.56079102 95.00493164 51.56079102 95.00493164 50.25390625 94.60546875 C49.46314697 94.36981201 48.6723877 94.13415527 47.85766602 93.89135742 C47.24463623 93.59720947 46.63160645 93.30306152 46 93 C44.89371464 89.68114392 45.07535184 89.01573053 46.109375 85.82421875 C46.36976563 84.99470703 46.63015625 84.16519531 46.8984375 83.31054688 C47.17945313 82.44494141 47.46046875 81.57933594 47.75 80.6875 C50.39170709 72.49949039 52.18058951 64.49058227 54 56 C40.47 56 26.94 56 13 56 C12.34 58.97 11.68 61.94 11 65 C7.76502006 74.27007367 3.12360927 82.52813284 -2.046875 90.8203125 C-3.50042153 93.18668625 -4.82604268 95.48972955 -6 98 C-9.58273331 96.34643078 -12.80973467 94.32019297 -16 92 C-16 91.34 -16 90.68 -16 90 C-16.804375 89.690625 -17.60875 89.38125 -18.4375 89.0625 C-21 88 -21 88 -22 87 C-22.33 87.66 -22.66 88.32 -23 89 C-28.28 89 -33.56 89 -39 89 C-39.01030746 90.37586777 -39.02061493 91.75173553 -39.03123474 93.16929626 C-39.12878303 106.10452305 -39.23149897 119.03969973 -39.33933926 131.97484493 C-39.39461967 138.6257113 -39.44804768 145.27657704 -39.49731445 151.92749023 C-39.54488271 158.3400679 -39.5972225 164.75259015 -39.65294075 171.16510201 C-39.67339858 173.61762686 -39.69210584 176.07016694 -39.70907402 178.52271843 C-39.7330424 181.94480801 -39.76310694 185.3667917 -39.79467773 188.78881836 C-39.8004332 189.81380432 -39.80618866 190.83879028 -39.81211853 191.89483643 C-39.82190735 192.82176804 -39.83169617 193.74869965 -39.84178162 194.70372009 C-39.84823417 195.51397613 -39.85468672 196.32423216 -39.8613348 197.1590414 C-40 199 -40 199 -41 200 C-49.25 200 -57.5 200 -66 200 C-66 163.04 -66 126.08 -66 88 C-71.61 88 -77.22 88 -83 88 C-82.97679687 89.29808594 -82.95359375 90.59617187 -82.9296875 91.93359375 C-82.46797482 129.40927331 -85.70754807 170.11277432 -103 204 C-106.48521756 202.54590261 -108.30649199 200.71263764 -110.6875 197.8125 C-114.6692793 193.17833878 -119.05429334 189.56045086 -124 186 C-123.25755444 182.34964266 -121.76485457 179.20530573 -120.25 175.8125 C-105.50406734 140.5875948 -108.85611258 98.01782084 -109 60.6875 C-109.02369469 54.44645869 -109.04394785 48.20544059 -109.05593872 41.96436501 C-109.06240439 39.48586779 -109.07488833 37.00744808 -109.08764648 34.52897644 C-109.09127454 33.0267239 -109.09462682 31.52447066 -109.09765625 30.0222168 C-109.10289307 28.71036911 -109.10812988 27.39852142 -109.11352539 26.04692078 C-109 23 -109 23 -108 21 C-105.8940529 20.34491259 -103.75394861 19.79896494 -101.60546875 19.30078125 C-100.25277691 18.9792227 -98.90015943 18.65735128 -97.54760742 18.33520508 C-96.8354306 18.16856354 -96.12325378 18.001922 -95.38949585 17.83023071 C-78.84171069 13.93953464 -62.32084369 9.7259802 -47.19140625 1.75 C-44.35539458 0.77938638 -42.82862744 1.06013657 -40 2 C-38.11328125 3.3125 -38.11328125 3.3125 -36.3125 5 C-35.63832031 5.62390625 -34.96414063 6.2478125 -34.26953125 6.890625 C-33.14611328 7.93476563 -33.14611328 7.93476563 -32 9 C-31.09636719 9.77859375 -30.19273437 10.5571875 -29.26171875 11.359375 C-28.35035156 12.14828125 -27.43898438 12.9371875 -26.5 13.75 C-25.6440625 14.48734375 -24.788125 15.2246875 -23.90625 15.984375 C-22 18 -22 18 -22 21 C-34.66046196 25.76945249 -47.34045903 30.29131524 -60.375 33.9375 C-61.376521 34.21924072 -62.37804199 34.50098145 -63.40991211 34.79125977 C-69.95002488 36.5762167 -76.25475144 37.77359117 -83 39 C-83 46.92 -83 54.84 -83 63 C-63.2 63 -43.4 63 -23 63 C-22.505 67.455 -22.505 67.455 -22 72 C-11.56143443 49.98622505 -5.82537462 28.66480156 -1.5690918 4.77124023 C-1 2 -1 2 0 0 Z " fill="#EAE9E8" transform="translate(662,11)"/>
<path d="M0 0 C30.36 0 60.72 0 92 0 C92 6.93 92 13.86 92 21 C91 22 91 22 88.04077148 22.11352539 C86.74727783 22.10828857 85.45378418 22.10305176 84.12109375 22.09765625 C83.09110008 22.09553383 83.09110008 22.09553383 82.04029846 22.09336853 C79.83932199 22.08775479 77.63844591 22.07520007 75.4375 22.0625 C73.94856917 22.05748676 72.45963676 22.05292355 70.97070312 22.04882812 C67.31376925 22.03778093 63.65689442 22.02050713 60 22 C59.896875 22.66 59.79375 23.32 59.6875 24 C58.82365802 27.7694923 57.35786727 31.37902063 56 35 C70.85 35.495 70.85 35.495 86 36 C86.72333686 39.61668428 87.1199988 42.20542039 87.08901978 45.77056885 C87.08342545 46.70155396 87.07783112 47.63253906 87.07206726 48.59173584 C87.06069229 49.60076965 87.04931732 50.60980347 87.03759766 51.64941406 C87.02559578 53.25743896 87.02559578 53.25743896 87.01335144 54.89794922 C86.98549559 58.43724042 86.95001479 61.97640746 86.9140625 65.515625 C86.89229459 67.97230762 86.870845 70.42899308 86.84970093 72.88568115 C86.8042268 78.03027068 86.75500027 83.17480709 86.703125 88.31933594 C86.63675731 94.92959826 86.57954712 101.53990242 86.52509499 108.15027237 C86.48236467 113.22014946 86.4349137 118.28997376 86.38599777 123.35979462 C86.36302821 125.79836461 86.34152765 128.23694888 86.32149124 130.67554474 C86.29285015 134.0731521 86.25789687 137.47063559 86.22119141 140.86816406 C86.2138649 141.8852948 86.20653839 142.90242554 86.19898987 143.95037842 C86.18775589 144.87008423 86.17652191 145.78979004 86.16494751 146.73736572 C86.15719614 147.54112766 86.14944477 148.3448896 86.14145851 149.17300797 C86 151 86 151 85 152 C82.5050359 152.0950257 80.03797738 152.12556258 77.54272461 152.11352539 C76.74962922 152.11364593 75.95653383 152.11376646 75.13940525 152.11389065 C72.56035667 152.1131415 69.98137948 152.10551321 67.40234375 152.09765625 C65.81481969 152.09618684 64.22729515 152.09516612 62.63977051 152.09460449 C56.73900631 152.08935154 50.83825246 152.07539046 44.9375 152.0625 C25.1684375 152.0315625 25.1684375 152.0315625 5 152 C5 113.72 5 75.44 5 36 C13.58 36 22.16 36 31 36 C31.33 32.37 31.66 28.74 32 25 C32.495 23.515 32.495 23.515 33 22 C22.11 22 11.22 22 0 22 C0 14.74 0 7.48 0 0 Z " fill="#EAEBE7" transform="translate(1298,20)"/>
<path d="M0 0 C28.38 0 56.76 0 86 0 C86.16121214 44.02434771 86.16121214 44.02434771 86.1953125 62.47851562 C86.21904318 75.2185714 86.24693457 87.95852133 86.30175781 100.69848633 C86.34166698 109.9771152 86.36744266 119.25565816 86.37635398 128.53437048 C86.3815618 133.44593891 86.39377394 138.35726159 86.42292023 143.26875114 C86.45015375 147.89558371 86.45842898 152.52207026 86.45243073 157.14897537 C86.45352742 158.843237 86.46143395 160.5375107 86.4768219 162.2317028 C86.56103206 171.98493496 86.48695433 180.33125684 80.17578125 188.3046875 C71.83905938 195.33060405 62.853653 197.14537015 52.0703125 197.09765625 C50.78125 197.09443359 49.4921875 197.09121094 48.1640625 197.08789062 C46.81770764 197.07953733 45.47135348 197.07107241 44.125 197.0625 C42.75520996 197.0574783 41.38541815 197.05291657 40.015625 197.04882812 C36.6770381 197.03707254 33.33854185 197.02063964 30 197 C29.63648438 195.54980469 29.63648438 195.54980469 29.265625 194.0703125 C27.48960536 187.12614719 25.60493119 180.44670739 22.734375 173.85546875 C22 172 22 172 22 170 C22.91289795 170.00523682 23.8257959 170.01047363 24.76635742 170.01586914 C28.16756833 170.03295631 31.56873331 170.0454722 34.9699707 170.05493164 C36.43937909 170.05994669 37.90878252 170.06676033 39.37817383 170.07543945 C41.49561795 170.08762928 43.61299583 170.09325669 45.73046875 170.09765625 C47.00301514 170.10289307 48.27556152 170.10812988 49.58666992 170.11352539 C53.29121756 170.08338042 53.29121756 170.08338042 58 169 C58.33 140.95 58.66 112.9 59 84 C41.07966928 83.71086019 41.07966928 83.71086019 23.15917969 83.43188477 C20.91340517 83.39376059 18.66763647 83.35529135 16.421875 83.31640625 C14.67124756 83.2916925 14.67124756 83.2916925 12.88525391 83.26647949 C11.76908691 83.24629761 10.65291992 83.22611572 9.50292969 83.20532227 C8.05064972 83.18200584 8.05064972 83.18200584 6.56903076 83.15821838 C4 83 4 83 0 82 C0 54.94 0 27.88 0 0 Z " fill="#E9EAE6" transform="translate(1514,19)"/>
<path d="M0 0 C3.26632396 3.18665752 6.28137824 6.43153347 9.125 10 C9.78757812 10.825 10.45015625 11.65 11.1328125 12.5 C16 19.0167364 16 19.0167364 16 22 C12.25049853 23.14746904 8.50031435 24.29269078 4.75 25.4375 C3.15478516 25.92573242 3.15478516 25.92573242 1.52734375 26.42382812 C0.50253906 26.73642578 -0.52226563 27.04902344 -1.578125 27.37109375 C-2.52075195 27.65911865 -3.46337891 27.94714355 -4.43457031 28.24389648 C-6.60756782 28.88433932 -8.8022289 29.45055722 -11 30 C-11.33 39.57 -11.66 49.14 -12 59 C-2.43 59 7.14 59 17 59 C16.67 67.58 16.34 76.16 16 85 C2.635 85.495 2.635 85.495 -11 86 C-8.875625 88.083125 -6.75125 90.16625 -4.5625 92.3125 C3.45807151 100.27353584 10.58131786 108.68255818 17 118 C13.99421697 122.6297606 10.77146512 127.02498183 7.375 131.375 C6.88515625 132.01566406 6.3953125 132.65632812 5.890625 133.31640625 C4.64198265 134.91644249 3.32603036 136.46348863 2 138 C1.34 138 0.68 138 0 138 C-3.63 131.73 -7.26 125.46 -11 119 C-11.33 146.72 -11.66 174.44 -12 203 C-20.58 203 -29.16 203 -38 203 C-38.495 167.36 -38.495 167.36 -39 131 C-41.64 136.61 -44.28 142.22 -47 148 C-51.05769504 154.90413783 -55.22188452 161.57940732 -60 168 C-63.50838546 164.74486178 -65.36291318 160.94823259 -67.5625 156.75 C-67.96146484 156.01136719 -68.36042969 155.27273437 -68.77148438 154.51171875 C-71.10336128 150.09711372 -73.20995959 145.95570805 -74 141 C-72.76171875 138.65625 -72.76171875 138.65625 -70.6875 136.5 C-57.85909707 121.88312782 -49.89194222 102.98689715 -43 85 C-44.26444946 85.00785522 -44.26444946 85.00785522 -45.55444336 85.01586914 C-48.67227936 85.03287826 -51.79009177 85.04543406 -54.90795898 85.05493164 C-56.25920386 85.05997057 -57.61044326 85.06680177 -58.96166992 85.07543945 C-60.90020434 85.08752419 -62.838778 85.09269828 -64.77734375 85.09765625 C-66.52905884 85.10551147 -66.52905884 85.10551147 -68.31616211 85.11352539 C-71 85 -71 85 -72 84 C-72.08737645 82.14630389 -72.10698153 80.28932459 -72.09765625 78.43359375 C-72.09515869 77.42095459 -72.09266113 76.40831543 -72.09008789 75.36499023 C-72.08098389 74.06891846 -72.07187988 72.77284668 -72.0625 71.4375 C-72.041875 67.333125 -72.02125 63.22875 -72 59 C-60.78 59 -49.56 59 -38 59 C-38 51.41 -38 43.82 -38 36 C-44.73288058 37.35199385 -44.73288058 37.35199385 -51.46191406 38.72290039 C-52.30463867 38.88781982 -53.14736328 39.05273926 -54.015625 39.22265625 C-54.87446289 39.39547119 -55.73330078 39.56828613 -56.61816406 39.74633789 C-59.15055788 40.0160342 -60.67072518 40.03917627 -63 39 C-64.11254883 37.18994141 -64.11254883 37.18994141 -64.95703125 34.8515625 C-65.26447266 34.01109375 -65.57191406 33.170625 -65.88867188 32.3046875 C-66.19353516 31.42039062 -66.49839844 30.53609375 -66.8125 29.625 C-67.13669922 28.7484375 -67.46089844 27.871875 -67.79492188 26.96875 C-70.13664233 20.40992698 -70.13664233 20.40992698 -69 17 C-68.39865234 16.91024902 -67.79730469 16.82049805 -67.17773438 16.72802734 C-44.0761175 13.22262327 -22.03721787 7.75893712 0 0 Z " fill="#EAE9E8" transform="translate(824,13)"/>
<path d="M0 0 C28.05 0 56.1 0 85 0 C85 27.06 85 54.12 85 82 C81.78168928 82.80457768 79.66793841 83.11914479 76.45019531 83.09765625 C75.55536438 83.09435303 74.66053345 83.0910498 73.73858643 83.08764648 C72.77813416 83.07934814 71.81768188 83.0710498 70.828125 83.0625 C69.83174011 83.05871338 68.83535522 83.05492676 67.80877686 83.05102539 C63.55150299 83.03470857 59.29432561 83.00666591 55.03710938 82.97949219 C51.92578583 82.96132527 48.81447827 82.94927902 45.703125 82.9375 C44.75076965 82.92920166 43.79841431 82.92090332 42.81719971 82.91235352 C41.90976013 82.90905029 41.00232056 82.90574707 40.06738281 82.90234375 C39.28002747 82.89710693 38.49267212 82.89187012 37.68145752 82.88647461 C34.10488071 83.03789684 30.55213727 83.55598284 27 84 C26.67 121.29 26.34 158.58 26 197 C17.42 197 8.84 197 0 197 C0 131.99 0 66.98 0 0 Z " fill="#EAEBE7" transform="translate(1415,19)"/>
<path d="M0 0 C8.91 0 17.82 0 27 0 C27 13.53 27 27.06 27 41 C33.93 41 40.86 41 48 41 C48 49.25 48 57.5 48 66 C38.1 66.495 38.1 66.495 28 67 C28 76.9 28 86.8 28 97 C32.75868631 95.3612278 32.75868631 95.3612278 37.51269531 93.70898438 C40.90035298 92.56093471 43.38319383 92 47 92 C47.5073957 95.20720862 48.004579 98.41592163 48.5 101.625 C48.64308594 102.52863281 48.78617188 103.43226562 48.93359375 104.36328125 C49.63734167 108.95439866 50.18584778 113.33831815 50 118 C47.08416415 118.98165279 44.1671912 119.95988301 41.25 120.9375 C40.425 121.21529297 39.6 121.49308594 38.75 121.77929688 C37.95078125 122.04677734 37.1515625 122.31425781 36.328125 122.58984375 C35.5949707 122.83597412 34.86181641 123.08210449 34.10644531 123.33569336 C32.08447801 123.97335829 30.05834788 124.49489417 28 125 C27.99413376 125.71917099 27.98826752 126.43834198 27.98222351 127.17930603 C27.92407727 133.99027693 27.85187674 140.80097314 27.76428509 147.61162472 C27.71974892 151.1122344 27.68045731 154.61273219 27.65356445 158.11352539 C27.62233683 162.14758877 27.56755599 166.18104536 27.51171875 170.21484375 C27.50213387 172.08099586 27.50213387 172.08099586 27.49235535 173.98484802 C27.34343113 182.86684598 26.68979526 191.49603238 20 198 C11.58223672 203.77689637 2.92842301 204.30576827 -7.0625 204.125 C-8.02349609 204.11597656 -8.98449219 204.10695312 -9.97460938 204.09765625 C-12.31667805 204.07435208 -14.65819792 204.04164058 -17 204 C-17.17128418 203.45585449 -17.34256836 202.91170898 -17.51904297 202.35107422 C-18.30384622 199.85888673 -19.08941716 197.36694185 -19.875 194.875 C-20.14441406 194.0190625 -20.41382813 193.163125 -20.69140625 192.28125 C-22.09162868 187.84152035 -23.51044603 183.41081514 -25 179 C-24.01604248 179.01571045 -24.01604248 179.01571045 -23.01220703 179.03173828 C-20.04984342 179.07322503 -17.08754084 179.09930262 -14.125 179.125 C-12.57619141 179.15013672 -12.57619141 179.15013672 -10.99609375 179.17578125 C-10.00996094 179.18222656 -9.02382813 179.18867188 -8.0078125 179.1953125 C-7.09660645 179.20578613 -6.18540039 179.21625977 -5.24658203 179.22705078 C-2.79709564 179.21870993 -2.79709564 179.21870993 -1 177 C-0.70848578 174.97990192 -0.70848578 174.97990192 -0.77294922 172.64208984 C-0.77310028 171.74130707 -0.77325134 170.84052429 -0.77340698 169.91244507 C-0.78889084 168.45144882 -0.78889084 168.45144882 -0.8046875 166.9609375 C-0.80893234 165.46694931 -0.80893234 165.46694931 -0.81326294 163.94277954 C-0.8244816 160.75339882 -0.84958919 157.56429622 -0.875 154.375 C-0.88502762 152.21614988 -0.89415385 150.05729537 -0.90234375 147.8984375 C-0.92272711 142.59876429 -0.9618727 137.29969443 -1 132 C-7.6 133.65 -14.2 135.3 -21 137 C-22.175625 133.349375 -22.175625 133.349375 -23.375 129.625 C-23.61782715 128.88072754 -23.8606543 128.13645508 -24.11083984 127.36962891 C-25.8186142 121.98228864 -26.982046 116.55627224 -28 111 C-24.08527676 109.99228484 -20.167929 108.9951719 -16.25 108 C-15.13882813 107.71382813 -14.02765625 107.42765625 -12.8828125 107.1328125 C-11.27792969 106.72675781 -11.27792969 106.72675781 -9.640625 106.3125 C-8.65610352 106.06113281 -7.67158203 105.80976562 -6.65722656 105.55078125 C-4 105 -4 105 0 105 C0 92.13 0 79.26 0 66 C-8.25 66 -16.5 66 -25 66 C-25.185625 62.24625 -25.37125 58.4925 -25.5625 54.625 C-25.62381104 53.44244629 -25.68512207 52.25989258 -25.74829102 51.04150391 C-25.81294556 49.64810791 -25.81294556 49.64810791 -25.87890625 48.2265625 C-25.94960327 46.79691162 -25.94960327 46.79691162 -26.02172852 45.33837891 C-26 43 -26 43 -25 41 C-16.75 41 -8.5 41 0 41 C0 27.47 0 13.94 0 0 Z " fill="#EAE8E7" transform="translate(997,11)"/>
<path d="M0 0 C8.58 0 17.16 0 26 0 C26.33 40.59 26.66 81.18 27 123 C32.28 122.01 37.56 121.02 43 120 C44.65 120 46.3 120 48 120 C50.13898002 128.34067679 51.55046968 136.39691968 52 145 C34.76666667 150 34.76666667 150 26 150 C26 168.15 26 186.3 26 205 C17.42 205 8.84 205 0 205 C-0.33 188.5 -0.66 172 -1 155 C-5.18945312 155.7940625 -9.37890625 156.588125 -13.6953125 157.40625 C-17.04545142 158.03805085 -20.39579263 158.66875527 -23.74627686 159.29872131 C-27.27800982 159.96307644 -30.80935818 160.62933771 -34.33984375 161.30029297 C-37.74300713 161.94697369 -41.14714022 162.58830167 -44.55199814 163.22599792 C-46.47693999 163.58794504 -48.40084993 163.95536642 -50.32473755 164.32287598 C-51.50550873 164.54310425 -52.68627991 164.76333252 -53.90283203 164.99023438 C-54.93763702 165.18564819 -55.97244202 165.38106201 -57.03860474 165.58239746 C-60 166 -60 166 -66 166 C-67.65 157.75 -69.3 149.5 -71 141 C-54.88743518 137.6948585 -38.74429027 134.63249817 -22.5625 131.6875 C-21.56295288 131.50501709 -20.56340576 131.32253418 -19.53356934 131.13452148 C-16.66989968 130.61227384 -13.80575796 130.09271106 -10.94140625 129.57421875 C-10.06849442 129.41507492 -9.19558258 129.25593109 -8.29621887 129.09196472 C-2.23121 128 -2.23121 128 0 128 C0 85.76 0 43.52 0 0 Z " fill="#EAE9E8" transform="translate(906,11)"/>
<path d="M0 0 C28.38 0 56.76 0 86 0 C86 23.43 86 46.86 86 71 C66.2 71 46.4 71 26 71 C26 74.96 26 78.92 26 83 C21.85412418 83.0268245 17.70841962 83.04675315 13.5625 83.0625 C11.78649414 83.07506836 11.78649414 83.07506836 9.97460938 83.08789062 C8.84990234 83.09111328 7.72519531 83.09433594 6.56640625 83.09765625 C5.00321655 83.10551147 5.00321655 83.10551147 3.40844727 83.11352539 C1 83 1 83 0 82 C-0.09506198 79.44406185 -0.12555454 76.91535694 -0.11352539 74.35913086 C-0.11364593 73.5462111 -0.11376646 72.73329134 -0.11389065 71.89573765 C-0.11314147 69.25207896 -0.10551303 66.6084899 -0.09765625 63.96484375 C-0.09618685 62.33760614 -0.09516613 60.71036806 -0.09460449 59.08312988 C-0.08935143 53.0345794 -0.07539035 46.98603903 -0.0625 40.9375 C-0.041875 27.428125 -0.02125 13.91875 0 0 Z " fill="#EAEBE6" transform="translate(1463,115)"/>
<path d="M0 0 C8.25 0 16.5 0 25 0 C25.01417969 2.30613281 25.02835938 4.61226563 25.04296875 6.98828125 C25.2192067 23.25973684 25.42458163 38.53797989 31 54 C31.52534409 55.58530696 32.04871761 57.17126804 32.5703125 58.7578125 C37.67329471 73.81621341 44.33077015 88.07192485 55 100 C55.69738281 100.82757813 56.39476562 101.65515625 57.11328125 102.5078125 C62.53417355 108.80490586 68.43654857 113.92099272 75 119 C74.21625 119.886875 73.4325 120.77375 72.625 121.6875 C67.83588074 127.25945607 63.4474034 133.15509237 59 139 C38.48385369 129.79159014 25.60047518 106.66870034 17 87 C16.34456823 85.66110814 15.6837045 84.32467746 15 83 C14.67128906 83.90878906 14.34257813 84.81757813 14.00390625 85.75390625 C8.80826147 99.65813896 1.69070063 111.72427794 -8 123 C-8.55042969 123.68320313 -9.10085938 124.36640625 -9.66796875 125.0703125 C-14.88886827 131.39491762 -21.74659306 139.25823446 -30 141 C-32.08494093 138.60556157 -34.16765854 136.20919922 -36.25 133.8125 C-36.83652344 133.13896484 -37.42304687 132.46542969 -38.02734375 131.77148438 C-41.09552189 128.23790842 -44.11069293 124.68315133 -47 121 C-46.17757812 120.33355469 -45.35515625 119.66710937 -44.5078125 118.98046875 C-18.40749457 97.5581762 -5.07824267 69.24572069 -1 36 C-0.47808523 29.65707433 -0.40247156 23.29829506 -0.3125 16.9375 C-0.27920231 15.28057425 -0.24470203 13.62367222 -0.20898438 11.96679688 C-0.12335066 7.97785914 -0.06210396 3.98964435 0 0 Z " fill="#EAE9E8" transform="translate(674,76)"/>
<path d="M0 0 C4.5167258 -0.29193719 6.82892005 0.06027397 10.42578125 2.81640625 C11.22306641 3.41646484 12.02035156 4.01652344 12.84179688 4.63476562 C14.06479492 5.58899414 14.06479492 5.58899414 15.3125 6.5625 C16.11623047 7.17158203 16.91996094 7.78066406 17.74804688 8.40820312 C20.17838153 10.25588313 22.5908455 12.12481084 25 14 C25.84997559 14.65726074 26.69995117 15.31452148 27.57568359 15.99169922 C33.85211075 20.85211075 33.85211075 20.85211075 35 22 C35.09494733 24.37300869 35.12559319 26.71678703 35.11352539 29.09008789 C35.11367142 29.83150528 35.11381744 30.57292267 35.1139679 31.33680725 C35.11326865 33.79878621 35.10547574 36.26069043 35.09765625 38.72265625 C35.09579211 40.42516539 35.09436819 42.12767507 35.09336853 43.83018494 C35.08954302 48.31993073 35.07971247 52.80964438 35.06866455 57.29937744 C35.05845113 61.87731491 35.05387106 66.45525756 35.04882812 71.03320312 C35.03809022 80.02214957 35.02101341 89.01107212 35 98 C31.19509847 96.53694842 28.10629211 94.86105153 24.76171875 92.515625 C23.77623047 91.82726562 22.79074219 91.13890625 21.77539062 90.4296875 C20.75638672 89.71039063 19.73738281 88.99109375 18.6875 88.25 C17.68009766 87.54617187 16.67269531 86.84234375 15.63476562 86.1171875 C12.74573168 84.09204058 9.86265293 82.06230813 7 80 C6.30262726 79.58260056 5.60525452 79.16520111 4.88674927 78.7351532 C-0.60926273 75.20936733 -0.60926273 75.20936733 -1.64619446 71.99996948 C-1.81421791 69.57608457 -1.71819908 67.28591644 -1.53125 64.86328125 C-1.4581372 62.97998807 -1.38523132 61.09668685 -1.3125 59.21337891 C-1.25900391 58.20938049 -1.20550781 57.20538208 -1.15039062 56.17095947 C-0.94001081 51.73513856 -0.88806141 47.30132239 -0.82885742 42.86129761 C-0.78111184 39.34529426 -0.71576161 35.83005433 -0.64453125 32.31445312 C-0.62084473 31.145354 -0.5971582 29.97625488 -0.57275391 28.77172852 C-0.54874512 27.58893311 -0.52473633 26.4061377 -0.5 25.1875 C-0.4516352 22.7298214 -0.40345704 20.27213911 -0.35546875 17.81445312 C-0.23912326 11.87625808 -0.12050295 5.93811206 0 0 Z " fill="#EAE1CE" transform="translate(151,122)"/>
<path d="M0 0 C4.29968595 1.4920552 7.83150742 3.73621463 11.5 6.375 C12.10585938 6.80981689 12.71171875 7.24463379 13.3359375 7.69262695 C22.4662914 14.39240298 30.94255824 22.1277875 38 31 C36.40927252 34.92132821 33.71490199 37.5827908 30.75 40.5 C30.28464844 40.97308594 29.81929687 41.44617188 29.33984375 41.93359375 C26.11681551 45.13886426 22.82668953 47.59982787 19 50 C17.32722165 48.21371169 15.66175557 46.4214925 14 44.625 C13.52304687 44.11710937 13.04609375 43.60921875 12.5546875 43.0859375 C9 39.2265625 9 39.2265625 9 37 C8.34 37 7.68 37 7 37 C6.44183594 36.28972656 5.88367188 35.57945313 5.30859375 34.84765625 C2.56475434 31.46312337 -0.48539705 29.06022521 -3.9375 26.4375 C-5.15505342 25.49883475 -6.37250315 24.56003499 -7.58984375 23.62109375 C-9.69820046 21.99642926 -11.814949 20.38635314 -13.94140625 18.78515625 C-14.62074219 18.19605469 -15.30007813 17.60695313 -16 17 C-16 16.34 -16 15.68 -16 15 C-14.64453125 13.66796875 -14.64453125 13.66796875 -12.8125 12.1875 C-9.69784884 9.60660962 -6.82451082 6.90084895 -4 4 C-2 2 -2 2 0 0 Z " fill="#EAE9E8" transform="translate(858,81)"/>
<path d="M0 0 C3.22537229 1.50173334 5.93570881 3.41809828 8.69140625 5.63671875 C9.28187744 6.10795166 9.87234863 6.57918457 10.48071289 7.06469727 C15.86184699 11.47086207 20.90605974 16.21576227 25.87890625 21.07421875 C26.64299805 21.80769531 27.40708984 22.54117188 28.19433594 23.296875 C28.89333008 23.99554688 29.59232422 24.69421875 30.3125 25.4140625 C30.9408374 26.03531006 31.5691748 26.65655762 32.21655273 27.29663086 C33.44140625 29.13671875 33.44140625 29.13671875 33.2644043 31.23510742 C32.04718381 34.04760531 30.1261544 35.52296279 27.81640625 37.51171875 C26.46482422 38.67960937 26.46482422 38.67960937 25.0859375 39.87109375 C23.77689453 40.99257812 23.77689453 40.99257812 22.44140625 42.13671875 C21.74402344 42.78125 21.04664063 43.42578125 20.328125 44.08984375 C18.76894041 45.51881806 17.11268361 46.8406261 15.44140625 48.13671875 C11.95763856 46.97546285 11.42631236 46.09906555 9.31640625 43.19921875 C1.2381915 32.53529928 -7.84040195 24.10665624 -18.55859375 16.13671875 C-16.52804027 11.58624041 -13.4584422 9.03397233 -9.74609375 5.82421875 C-9.12927734 5.26154297 -8.51246094 4.69886719 -7.87695312 4.11914062 C-3.33807326 0.17837033 -3.33807326 0.17837033 0 0 Z " fill="#EAE9E7" transform="translate(868.55859375,24.86328125)"/>
<path d="M0 0 C17.16 0 34.32 0 52 0 C47.14491685 14.56524944 37.15682921 27.57079008 26 38 C14.49933745 32.98429254 6.38852237 16.61208093 1.375 5.625 C0 2 0 2 0 0 Z " fill="#FBFAF8" transform="translate(1082,116)"/>
<path d="M0 0 C2.8125 1.9375 2.8125 1.9375 5 4 C5 4.66 5 5.32 5 6 C5.53496094 6.19851562 6.06992188 6.39703125 6.62109375 6.6015625 C10.06032231 8.62330934 12.41356931 11.42379869 15.0625 14.375 C15.59166016 14.9525 16.12082031 15.53 16.66601562 16.125 C24 24.18594142 24 24.18594142 24 28 C22.34765625 29.44213867 22.34765625 29.44213867 20.0625 30.91796875 C19.25039062 31.44970703 18.43828125 31.98144531 17.6015625 32.52929688 C16.74304687 33.07650391 15.88453125 33.62371094 15 34.1875 C14.14148437 34.74630859 13.28296875 35.30511719 12.3984375 35.88085938 C10.27150051 37.26336842 8.13871536 38.63581055 6 40 C2.95084419 38.67048318 1.20611951 37.35963931 -0.8125 34.7265625 C-1.32530518 34.07171875 -1.83811035 33.416875 -2.36645508 32.7421875 C-2.9055249 32.04351562 -3.44459473 31.34484375 -4 30.625 C-9.85752712 23.20372909 -16.15618631 16.51087141 -23 10 C-19.9802379 6.78670745 -16.4719531 4.82943411 -12.625 2.75 C-11.965 2.37359375 -11.305 1.9971875 -10.625 1.609375 C-6.71514789 -0.5091106 -4.24965706 -1.65306376 0 0 Z " fill="#EAEBE7" transform="translate(1369,175)"/>
<path d="M0 0 C11.55 0 23.1 0 35 0 C35 8.25 35 16.5 35 25 C23.45 25 11.9 25 0 25 C0 16.75 0 8.5 0 0 Z " fill="#FAF9F7" transform="translate(1489,138)"/>
<path d="M0 0 C16.17 0 32.34 0 49 0 C49 4.29 49 8.58 49 13 C32.83 13 16.66 13 0 13 C0 8.71 0 4.42 0 0 Z " fill="#FAFAF7" transform="translate(1220,70)"/>
<path d="M0 0 C15.51 0 31.02 0 47 0 C42.49335765 5.63330294 42.49335765 5.63330294 39.75 7.46484375 C39.14679932 7.86977051 38.54359863 8.27469727 37.92211914 8.69189453 C37.28781982 9.10294434 36.65352051 9.51399414 36 9.9375 C35.34443115 10.3691748 34.6888623 10.80084961 34.01342773 11.24560547 C28.23092629 14.98677123 22.26453294 18.13021396 16 21 C9.46863467 15.09397816 4.53686821 8.54133678 0 1 C0 0.67 0 0.34 0 0 Z " fill="#FCFCF8" transform="translate(443,139)"/>
<path d="M0 0 C12.21 0 24.42 0 37 0 C37 4.29 37 8.58 37 13 C24.79 13 12.58 13 0 13 C0 8.71 0 4.42 0 0 Z " fill="#FAFAF7" transform="translate(1325,107)"/>
<path d="M0 0 C11.88 0 23.76 0 36 0 C36 4.29 36 8.58 36 13 C24.12 13 12.24 13 0 13 C0 8.71 0 4.42 0 0 Z " fill="#FAFAF7" transform="translate(1326,76)"/>
<path d="M0 0 C11.88 0 23.76 0 36 0 C36 3.96 36 7.92 36 12 C24.12 12 12.24 12 0 12 C0 8.04 0 4.08 0 0 Z " fill="#FBFBF8" transform="translate(1325,139)"/>
<path d="M0 0 C11.88 0 23.76 0 36 0 C36 3.96 36 7.92 36 12 C24.12 12 12.24 12 0 12 C0 8.04 0 4.08 0 0 Z " fill="#FAFAF6" transform="translate(1538,69)"/>
<path d="M0 0 C11.88 0 23.76 0 36 0 C36 3.96 36 7.92 36 12 C24.12 12 12.24 12 0 12 C0 8.04 0 4.08 0 0 Z " fill="#FAF9F6" transform="translate(1538,39)"/>
<path d="M0 0 C11.55 0 23.1 0 35 0 C35 3.96 35 7.92 35 12 C23.45 12 11.9 12 0 12 C0 8.04 0 4.08 0 0 Z " fill="#FAFAF7" transform="translate(1441,69)"/>
<path d="M0 0 C11.55 0 23.1 0 35 0 C35 3.96 35 7.92 35 12 C23.45 12 11.9 12 0 12 C0 8.04 0 4.08 0 0 Z " fill="#FAFAF7" transform="translate(1441,39)"/>
<path d="M0 0 C3.96 0 7.92 0 12 0 C9.08659817 10.45870981 5.55878526 19.64458043 0 29 C-0.33 29 -0.66 29 -1 29 C-0.67 19.43 -0.34 9.86 0 0 Z " fill="#FAFAF7" transform="translate(1220,102)"/>
<path d="M0 0 C7.92 0 15.84 0 24 0 C20.71536341 2.18975773 17.79303725 2.99806563 14 4 C14.28875 4.77085938 14.5775 5.54171875 14.875 6.3359375 C15.431875 7.84027344 15.431875 7.84027344 16 9.375 C16.556875 10.87160156 16.556875 10.87160156 17.125 12.3984375 C18 15 18 15 18 17 C14.37 17 10.74 17 7 17 C7.959004 12.6525152 8.92020357 8.31918573 10 4 C6.7 3.01 3.4 2.02 0 1 C0 0.67 0 0.34 0 0 Z " fill="#FAF9F7" transform="translate(1239,102)"/>
<path d="M0 0 C4.29 0 8.58 0 13 0 C13 2.64 13 5.28 13 8 C8.71 8 4.42 8 0 8 C0 5.36 0 2.72 0 0 Z " fill="#FBFBF7" transform="translate(1244,179)"/>
<path d="M0 0 C4.62 0 9.24 0 14 0 C14 2.31 14 4.62 14 7 C9.38 7 4.76 7 0 7 C0 4.69 0 2.38 0 0 Z " fill="#F9F8F5" transform="translate(1243,157)"/>
<path d="M0 0 C4.62 0 9.24 0 14 0 C14 2.31 14 4.62 14 7 C9.38 7 4.76 7 0 7 C0 4.69 0 2.38 0 0 Z " fill="#FAFAF7" transform="translate(1243,135)"/>
<path d="M0 0 C2 1 2 1 2 1 Z " fill="#F6F2EF" transform="translate(1523,107)"/>
<path d="" fill="#F6F3EE" transform="translate(0,0)"/>
<path d="" fill="#EEFAF0" transform="translate(0,0)"/>
<path d="" fill="#EEF9F1" transform="translate(0,0)"/>
</svg>
